<svg width="153" height="29" viewBox="0 0 153 29" fill="none" xmlns="http://www.w3.org/2000/svg">
<g clip-path="url(#clip0_4_1387)">
<path d="M27.4105 14.5C27.4105 22.0799 21.4443 28.223 14.0897 28.223C6.73518 28.223 0.761841 22.0725 0.761841 14.5H27.4105Z" fill="#00CC5C"/>
<path d="M27.4105 14.4998H0.761841C0.761841 6.91992 6.72806 0.78418 14.0826 0.78418C21.4371 0.78418 27.4034 6.92725 27.4034 14.4998H27.4105Z" fill="#00FF7F"/>
<path d="M13.8832 26.3898C7.40375 26.3898 2.13586 20.9658 2.13586 14.2943C2.13586 7.62277 7.40375 2.19873 13.8832 2.19873C14.2336 2.19873 14.5187 2.49225 14.5187 2.85304C14.5187 3.21383 14.2336 3.50735 13.8832 3.50735C8.10455 3.50123 3.40087 8.34435 3.40087 14.2943C3.40087 20.2442 8.10455 25.0873 13.8832 25.0873C19.6618 25.0873 24.3655 20.2442 24.3655 14.2943C24.3655 11.7321 23.4747 9.24326 21.8652 7.29867C21.6395 7.0235 21.6692 6.61379 21.9365 6.38142C22.2037 6.14905 22.6016 6.17962 22.8273 6.4548C24.6328 8.63787 25.6305 11.4202 25.6305 14.2943C25.6305 20.9658 20.3626 26.3898 13.8832 26.3898Z" fill="white"/>
<path d="M14.0325 23.4516C10.7824 23.4516 7.83424 22.1021 6.49824 19.9957C6.31197 19.6964 6.42117 19.315 6.74874 19.139C7.07632 18.963 7.49381 19.0686 7.68651 19.3678C8.77842 21.0929 11.2641 22.196 14.0325 22.196C14.0582 22.196 14.0774 22.196 14.1031 22.196C16.7751 22.1784 19.0039 21.1222 20.0766 19.3737C20.2628 19.0745 20.6803 18.963 21.0079 19.1331C21.3355 19.3033 21.4575 19.6847 21.2713 19.9839C19.961 22.1314 17.2825 23.4223 14.116 23.4457C14.0903 23.4457 14.0646 23.4457 14.0325 23.4457V23.4516Z" fill="white"/>
<path fill-rule="evenodd" clip-rule="evenodd" d="M18.5383 5.75581C18.5383 6.07525 18.7907 6.33513 19.101 6.33513V6.34054C19.4112 6.34054 19.6636 6.08066 19.6636 5.76123V4.84624H20.547C20.8572 4.84624 21.1096 4.58636 21.1096 4.26693C21.1096 3.94749 20.8572 3.68762 20.547 3.68762H19.6636V2.77804C19.6636 2.45861 19.4112 2.19873 19.101 2.19873C18.7907 2.19873 18.5383 2.45861 18.5383 2.77804V3.68762H17.6497C17.3394 3.68762 17.087 3.94749 17.087 4.26693C17.087 4.58636 17.3394 4.84624 17.6497 4.84624H18.5383V5.75581Z" fill="white"/>
<path d="M46.7686 6.24561C50.065 6.24561 52.3432 8.50344 52.3432 11.9122C52.3432 15.3209 49.9938 17.5788 46.6049 17.5788H43.5933V22.7982H40.2257V6.24561H46.7686ZM43.5933 14.8738H45.8644C47.7938 14.8738 48.9187 13.8182 48.9187 11.9268C48.9187 10.0355 47.801 8.98726 45.8787 8.98726H43.5933V14.8738Z" fill="#292D32"/>
<path d="M54.1302 6.24561H57.3269V12.6966H57.391C58.0247 11.1498 59.3275 10.2775 61.1502 10.2775C63.8058 10.2775 65.3222 12.0441 65.3222 14.8884V22.8055H62.0686V15.5995C62.0686 14.0161 61.3139 13.0484 59.8259 13.0484C58.3379 13.0484 57.3839 14.1627 57.3839 15.7828V22.8055H54.1302V6.24561Z" fill="#292D32"/>
<path d="M66.9384 19.2721C66.9384 17.0362 68.6115 15.7387 71.5875 15.5554L74.599 15.3722V14.5585C74.599 13.4076 73.8159 12.7478 72.5913 12.7478C71.3667 12.7478 70.6049 13.3709 70.4483 14.2726H67.4723C67.5934 11.8828 69.5655 10.2407 72.7337 10.2407C75.9019 10.2407 77.7957 11.8681 77.7957 14.3459V22.8054H74.6489V20.9215H74.5848C73.9156 22.2263 72.4347 22.996 70.9396 22.996C68.6684 22.996 66.9384 21.4786 66.9384 19.2647V19.2721ZM74.5919 18.2971V17.4028L72.0716 17.564C70.8541 17.6593 70.1635 18.2165 70.1635 19.0888C70.1635 20.0051 70.8968 20.5843 72.0004 20.5843C73.4172 20.5843 74.5848 19.6313 74.5848 18.2971H74.5919Z" fill="#292D32"/>
<path d="M79.8889 10.5046H83.0358V12.7184H83.0999C83.5199 11.157 84.538 10.3066 85.9406 10.3066C86.3179 10.3066 86.6454 10.3653 86.8661 10.4313V13.3782C86.5956 13.2609 86.1542 13.1802 85.6843 13.1802C84.0824 13.1802 83.1426 14.1919 83.1426 15.9219V22.798H79.8889V10.5046Z" fill="#292D32"/>
<path d="M88.1904 10.5046H91.3373V12.7331H91.4014C91.8997 11.2523 93.1813 10.2773 94.8116 10.2773C96.5417 10.2773 97.7449 11.1937 98.1436 12.7991H98.2077C98.7417 11.2523 100.173 10.2773 101.917 10.2773C104.259 10.2773 105.833 11.9267 105.833 14.4118V22.8127H102.579V15.2475C102.579 13.8254 101.889 13.041 100.628 13.041C99.3682 13.041 98.5779 13.972 98.5779 15.3355V22.8054H95.4453V15.1376C95.4453 13.818 94.7191 13.041 93.5159 13.041C92.3127 13.041 91.4441 14.0013 91.4441 15.3795V22.8054H88.1904V10.5046Z" fill="#292D32"/>
<path d="M123.091 22.8055H112.689V6.24561H116.056V19.9392H123.091V22.8055Z" fill="#292D32"/>
<path d="M124.75 7.41851C124.75 6.44353 125.504 5.68848 126.487 5.68848C127.469 5.68848 128.224 6.44353 128.224 7.41851C128.224 8.39348 127.462 9.14854 126.487 9.14854C125.511 9.14854 124.75 8.37882 124.75 7.41851ZM124.863 10.5047H128.117V22.8055H124.863V10.5047Z" fill="#292D32"/>
<path d="M137.102 22.8057H133.421L129.285 10.5049H132.773L135.258 19.8441H135.322L137.8 10.5049H141.203L137.102 22.8057Z" fill="#292D32"/>
<path d="M152.893 19.0375C152.537 21.4493 150.394 23.062 147.44 23.062C143.759 23.062 141.552 20.6429 141.552 16.7064C141.552 12.7698 143.78 10.2334 147.311 10.2334C150.843 10.2334 152.986 12.6525 152.986 16.3985V17.4174H144.748V17.6227C144.748 19.382 145.831 20.5843 147.489 20.5843C148.686 20.5843 149.597 19.9758 149.896 19.0375H152.886H152.893ZM144.791 15.3648H149.86C149.796 13.7888 148.799 12.7112 147.354 12.7112C145.909 12.7112 144.905 13.8254 144.791 15.3648Z" fill="#292D32"/>
</g>
<defs>
<clipPath id="clip0_4_1387">
<rect width="153" height="29" fill="white"/>
</clipPath>
</defs>
</svg>
